<?xml version="1.0" encoding="UTF-8" standalone="no"?>
<!-- Created with Inkscape (http://www.inkscape.org/) -->

<svg
   xmlns:dc="http://purl.org/dc/elements/1.1/"
   xmlns:cc="http://creativecommons.org/ns#"
   xmlns:rdf="http://www.w3.org/1999/02/22-rdf-syntax-ns#"
   xmlns:svg="http://www.w3.org/2000/svg"
   xmlns="http://www.w3.org/2000/svg"
   xmlns:sodipodi="http://sodipodi.sourceforge.net/DTD/sodipodi-0.dtd"
   xmlns:inkscape="http://www.inkscape.org/namespaces/inkscape"
   width="210mm"
   height="297mm"
   viewBox="0 0 744.09448819 1052.3622047"
   id="svg2"
   version="1.1"
   inkscape:version="0.91 r13725"
   sodipodi:docname="clubjeux.svg">
  <defs
     id="defs4" />
  <sodipodi:namedview
     id="base"
     pagecolor="#ffffff"
     bordercolor="#666666"
     borderopacity="1.0"
     inkscape:pageopacity="0.0"
     inkscape:pageshadow="2"
     inkscape:zoom="0.49497475"
     inkscape:cx="491.21472"
     inkscape:cy="377.79494"
     inkscape:document-units="px"
     inkscape:current-layer="layer1"
     showgrid="false"
     inkscape:window-width="1280"
     inkscape:window-height="961"
     inkscape:window-x="-8"
     inkscape:window-y="-8"
     inkscape:window-maximized="1" />
  <metadata
     id="metadata7">
    <rdf:RDF>
      <cc:Work
         rdf:about="">
        <dc:format>image/svg+xml</dc:format>
        <dc:type
           rdf:resource="http://purl.org/dc/dcmitype/StillImage" />
        <dc:title></dc:title>
      </cc:Work>
    </rdf:RDF>
  </metadata>
  <g
     inkscape:groupmode="layer"
     id="layer5"
     inkscape:label="Calque 2"
     style="display:inline">
    <g
       id="g3362"
       transform="translate(-1205.5896,105.15591)">
      <g
         style="display:inline"
         inkscape:label="Fond"
         id="layer4" />
      <g
         style="display:inline;opacity:0.41199999"
         inkscape:label="Text"
         id="layer3" />
      <g
         style="display:inline"
         id="layer1-7"
         inkscape:label="Calque 1" />
      <g
         style="display:inline"
         inkscape:label="Calque 2"
         id="layer2" />
    </g>
  </g>
  <g
     inkscape:label="Calque 1"
     inkscape:groupmode="layer"
     id="layer1"
     style="display:inline;opacity:1">
    <path
       inkscape:connector-curvature="0"
       id="path3371"
       d="m 404.81829,873.71958 c -6.23845,-1.4202 -9.6346,-3.2623 -12.19081,-6.6124 -3.48795,-4.5711 -4.83465,-11.9085 -3.89106,-21.2001 1.53642,-15.12927 7.10977,-28.09641 17.53983,-40.80857 l 3.01087,-3.66964 8.29589,-3.45672 c 7.6936,-3.20574 17.82396,-7.15319 18.35717,-7.15319 0.12637,0 0.22972,0.37429 0.22972,0.83179 0,0.45772 -0.9148,1.45644 -2.03427,2.2209 -3.32493,2.27035 -9.83673,8.68583 -13.50599,13.3061 -9.02574,11.36499 -14.64161,21.99697 -17.0416,32.26313 -1.01041,4.3221 -1.24019,13.8231 -0.41637,17.2155 1.28164,5.2778 5.00839,9.6924 9.45122,11.1956 7.54399,2.5527 22.58565,0.4787 33.12002,-4.5666 15.95036,-7.6391 28.60095,-22.7297 38.46452,-45.88339 10.99181,-25.80213 16.54052,-53.88072 16.02886,-81.11232 -0.15662,-8.33255 -0.23274,-8.96211 -1.27681,-10.55629 -1.47344,-2.24974 -3.98525,-3.03042 -7.18788,-2.23403 -1.22772,0.30525 -7.18619,2.88329 -13.24112,5.72895 -17.23234,8.09869 -21.45067,9.04699 -33.26622,7.47811 -4.90372,-0.65108 -11.09577,-2.46832 -13.80673,-4.05189 -2.27873,-1.33113 -4.38199,-3.56196 -4.38199,-4.64782 0,-0.32714 3.15626,-2.50104 7.01387,-4.83089 7.97888,-4.81894 7.05953,-4.74831 12.37148,-0.95034 5.61706,4.01608 6.57168,4.29614 14.59884,4.28298 9.66457,-0.016 14.62638,-1.23647 34.88475,-8.58182 10.08758,-3.65757 11.60521,-4.01524 14.3033,-3.37071 2.43308,0.58118 4.17031,2.35771 4.94305,5.05483 0.93708,3.27071 -0.18446,25.0468 -2.00574,38.94504 -5.19524,39.64338 -20.46557,73.40749 -41.91597,92.67999 -13.63266,12.2486 -28.28967,19.0169 -46.75808,21.5922 -5.20841,0.7263 -17.89586,1.3007 -19.69275,0.8916 z M 64.019021,853.24478 c -8.107805,-1.3884 -14.797924,-3.8846 -20.916457,-7.8042 -11.64243,-7.4583 -17.979075,-17.01662 -19.905012,-30.02502 -1.300015,-8.78049 0.157419,-21.22833 3.714137,-31.72187 7.323891,-21.608 26.66264,-42.09923 49.448133,-52.39502 17.198148,-7.77104 37.486278,-10.12834 52.825838,-6.13785 13.25273,3.44763 17.54665,8.60018 13.62922,16.35457 -2.73268,5.40916 -7.55028,7.91998 -11.52905,6.00858 -1.03791,-0.49861 -1.16362,-0.82375 -1.04239,-2.69553 0.3336,-5.15047 -3.12183,-7.88333 -13.88339,-10.98009 -7.30839,-2.10312 -12.29405,-2.74471 -18.798,-2.4191 -17.229313,0.86247 -31.865875,9.73904 -43.569304,26.42333 -8.766582,12.4975 -13.429137,25.12303 -14.704913,39.81886 -0.996053,11.47325 0.592455,21.35076 4.74427,29.50038 1.85077,3.63293 2.850001,4.93134 6.306586,8.19488 3.249042,3.06768 4.962764,4.27898 8.20097,5.79718 10.66223,4.9986 26.773763,6.231 39.956071,3.0564 5.34293,-1.2867 10.68414,-3.5081 20.93178,-8.70566 6.16651,-3.12762 7.71133,-3.74063 8.46361,-3.35842 1.54516,0.78508 1.64763,2.13566 0.32468,4.27878 -2.86604,4.6429 -15.53914,10.0109 -34.44604,14.5907 -12.19996,2.9551 -21.431331,3.6437 -29.750739,2.2191 z m 162.262569,-0.844 c -1.92862,-0.9408 -3.39367,-3.0959 -4.26183,-6.2692 -1.09274,-3.994 -0.32571,-9.0455 2.59746,-17.10703 1.30706,-3.60461 2.29588,-6.6304 2.19739,-6.72394 -0.0985,-0.0935 -1.65563,1.62886 -3.4603,3.82741 -16.69166,20.33536 -24.20605,26.13986 -33.78331,26.09646 -3.93053,-0.018 -6.47323,-1.3898 -8.00174,-4.3173 -3.33872,-6.3946 0.36003,-21.07329 9.83359,-39.02539 1.4178,-2.6867 2.52219,-4.88441 2.45418,-4.88379 -0.068,0 -2.1316,0.51185 -4.58574,1.13603 -5.63606,1.4335 -6.2109,1.43154 -6.59527,-0.0222 -0.16826,-0.63647 -0.21582,-1.24272 -0.10565,-1.34731 0.11013,-0.10455 2.88228,-0.91755 6.16027,-1.80655 3.27799,-0.88905 9.35349,-2.86032 13.50109,-4.3806 7.22429,-2.64805 8.97236,-2.96705 8.97236,-1.63718 0,0.33299 -1.42048,2.94661 -3.15664,5.80795 -5.33125,8.78634 -7.28258,12.85008 -11.50604,23.9618 -4.31329,11.34792 -4.94848,13.96972 -4.0269,16.62072 1.09044,3.1369 3.40477,3.7353 7.47962,1.9339 7.58838,-3.3545 27.62921,-26.92228 34.6952,-40.80104 1.03565,-2.03416 1.33598,-2.23905 7.10643,-4.84827 6.2565,-2.82902 8.65768,-3.64343 8.65768,-2.93637 0,0.22786 -2.49124,6.43569 -5.53611,13.79519 -6.19217,14.96658 -11.69412,29.98749 -11.69485,31.92799 0,1.3646 0.7614,3.0499 1.62684,3.5985 1.22312,0.7754 3.84927,0.2925 6.44715,-1.1856 4.64089,-2.6403 4.63579,-2.6388 5.83096,-1.72 l 1.07073,0.8231 -1.38526,1.2485 c -2.35262,2.1203 -5.21541,3.8349 -10.39311,6.2248 -5.58405,2.5774 -7.9945,3.0552 -10.1382,2.0095 z m 395.63746,-0.3098 c -0.90343,-0.5845 -2.19579,-2.085 -2.87191,-3.3346 -1.10936,-2.0503 -1.22228,-2.7377 -1.1573,-7.0434 0.0772,-5.109 0.56224,-7.09358 3.70284,-15.14916 0.95861,-2.45873 1.54558,-4.40135 1.30438,-4.3169 -0.2412,0.0845 -1.68014,1.68721 -3.19773,3.56167 -3.57437,4.41506 -11.21835,13.08799 -14.53532,16.49209 -6.97072,7.1537 -15.15852,10.9134 -21.36827,9.8121 -2.78367,-0.4938 -3.74622,-1.015 -5.16084,-2.7945 -4.77162,-6.0029 -1.44829,-20.925 9.11745,-40.93831 1.16829,-2.21287 2.05686,-4.08119 1.9746,-4.15182 -0.0822,-0.0706 -2.3738,0.41086 -5.09234,1.06983 -4.86719,1.17979 -4.95327,1.18466 -5.62415,0.31609 -0.37476,-0.48517 -0.68133,-1.11091 -0.68133,-1.3905 0,-0.27963 2.83986,-1.27395 6.31076,-2.20956 3.47091,-0.93558 9.63501,-2.91707 13.69799,-4.40325 4.06301,-1.48614 7.66189,-2.7021 7.9976,-2.7021 1.70603,0 1.11169,1.49101 -3.80382,9.54262 -3.66079,5.99637 -5.98087,10.89237 -9.25921,19.53967 -5.0408,13.29633 -5.35885,14.41543 -4.85057,17.06553 0.48662,2.5371 2.15041,4.2918 4.06953,4.2918 2.7033,0 8.00342,-3.2614 11.92418,-7.3375 10.60981,-11.03017 18.45448,-21.08868 24.7786,-31.77141 l 2.98314,-5.03912 6.46179,-2.90645 c 3.554,-1.59858 6.73101,-2.91197 7.06009,-2.91859 1.01784,-0.0204 0.70128,1.08633 -2.56101,8.95425 -1.73761,4.19076 -5.0524,12.42498 -7.36616,18.29825 -6.74488,17.12127 -7.47875,20.20507 -5.2212,21.94057 1.70457,1.3104 4.39045,0.8348 8.20622,-1.453 2.67136,-1.6017 3.34668,-1.8307 4.16755,-1.4137 0.53884,0.2738 0.97966,0.759 0.97966,1.0784 0,1.4346 -5.42579,4.9994 -12.26452,8.0581 -5.38869,2.4101 -7.50926,2.6834 -9.7207,1.2529 z m 72.86571,0.1361 c -4.82396,-1.5824 -7.88196,-4.4386 -10.02934,-9.3675 l -0.86318,-1.9814 -3.83954,3.4847 c -3.66517,3.3264 -8.08951,6.0198 -11.39993,6.9399 -7.87258,2.1881 -16.8925,0.8832 -19.16747,-2.773 -1.88125,-3.0234 -0.26418,-8.865 2.937,-10.6093 2.10756,-1.1484 7.18834,-1.5208 8.44769,-0.6192 0.91211,0.6531 0.91342,0.7215 0.0631,3.3876 -0.75573,2.3697 -0.78315,2.8903 -0.21241,4.0311 1.52606,3.05 7.31333,3.7734 11.26101,1.4075 4.07764,-2.4437 8.70952,-8.5314 11.64844,-15.30947 1.91165,-4.40883 4.13152,-11.83391 4.48909,-15.01518 0.35213,-3.13253 -0.40023,-7.72764 -1.64426,-10.0427 -1.77687,-3.30655 -6.4972,-5.21482 -10.10401,-4.08475 -0.89596,0.28072 -3.32719,1.4291 -5.40266,2.55197 -2.07547,1.12283 -3.93765,2.04158 -4.13826,2.04158 -0.20061,0 -0.51603,-0.45274 -0.70105,-1.00603 -0.72342,-2.16398 7.55555,-7.56031 14.1527,-9.2248 3.56434,-0.89933 9.22915,-0.87257 11.2844,0.0533 2.233,1.00595 4.45693,3.46922 6.85363,7.59106 1.11782,1.92237 2.12398,3.49529 2.23594,3.49529 0.11189,0 2.19,-1.4318 4.61791,-3.18175 10.20391,-7.35469 18.35813,-9.63202 24.90745,-6.95619 2.21255,0.90395 2.29365,1.86962 0.31468,3.74834 -1.69013,1.60454 -5.40756,4.11754 -6.091,4.11754 -0.25208,0 -1.89584,-0.63864 -3.65279,-1.41918 -3.72352,-1.6542 -5.93029,-1.63402 -9.5613,0.0876 -2.79237,1.32393 -7.5222,5.71089 -9.87759,9.16154 -3.19976,4.6877 -7.13951,18.29319 -6.46197,22.31582 1.10047,6.53343 7.03632,11.66003 13.50063,11.66003 2.46597,0 6.49433,-1.6478 11.20084,-4.5818 3.59601,-2.2417 4.48798,-2.6184 5.26524,-2.2234 1.14979,0.5842 1.18307,1.7221 0.0875,2.9939 -2.22262,2.5802 -13.17185,8.1866 -18.51799,9.4818 -3.78039,0.916 -8.53132,0.8526 -11.60253,-0.1549 z m -553.8012,-0.1114 c -3.13999,-0.8619 -3.80455,-3.8651 -2.0088,-9.078 1.02668,-2.9805 4.78478,-12.76569 11.41631,-29.72539 5.39734,-13.8034 7.77696,-21.25115 14.80911,-46.3499 4.17716,-14.90885 6.803,-25.16512 7.4733,-29.19022 l 0.3207,-1.9255 -3.27194,1.1859 c -9.10895,3.30161 -8.76187,3.22087 -9.54035,2.21953 -0.38484,-0.49498 -0.63944,-1.19718 -0.56577,-1.56045 0.0751,-0.37033 2.23626,-1.43045 4.92004,-2.41347 2.63231,-0.96411 6.83225,-2.59385 9.33318,-3.62154 8.05037,-3.30819 9.80066,-3.979 10.41066,-3.99002 0.97039,-0.0171 0.74332,7.85604 -0.3889,13.48488 -3.989,19.83125 -15.58299,56.44309 -27.74397,87.61076 -4.12409,10.56972 -5.7476,15.36802 -5.47534,16.18232 0.68753,2.0566 3.17556,1.3412 11.22359,-3.2273 4.64759,-2.6381 5.93408,-3.1888 6.27067,-2.6841 0.82987,1.2442 0.41218,2.2296 -1.40746,3.32 -3.529,2.115 -16.36974,8.0085 -19.90007,9.1336 -3.9084,1.2455 -3.70721,1.224 -5.87496,0.6289 z m 387.30671,-0.1307 c -5.79129,-1.3357 -10.45679,-4.7961 -12.9228,-9.5847 -1.20586,-2.3417 -1.42604,-3.3612 -1.58035,-7.31793 -0.39502,-10.1322 4.12976,-19.73968 13.14658,-27.91405 6.29479,-5.70668 12.80474,-9.42496 19.56517,-11.17491 3.20776,-0.83041 10.46774,-0.8014 13.50143,0.0539 7.47683,2.10793 8.43899,10.63703 1.95347,17.31665 -5.61105,5.77906 -17.70778,11.92414 -30.29307,15.38886 l -5.26516,1.44946 0.0856,1.844 c 0.25678,5.53855 7.18251,11.77055 14.07347,12.66375 4.04885,0.5247 10.76447,-1.3733 15.51732,-4.3857 3.76441,-2.3858 5.91627,-3.2214 6.94725,-2.6976 1.94795,0.9898 0.73245,2.8063 -4.20133,6.2785 -9.47272,6.6669 -22.12943,10.0167 -30.52753,8.0798 z m 9.2306,-30.53623 c 5.40998,-2.55022 6.71494,-3.3827 8.90593,-5.68115 6.1633,-6.46575 7.52726,-13.7517 2.8878,-15.4263 -3.78873,-1.36752 -8.79691,0.38789 -12.56876,4.4055 -4.39895,4.68555 -9.15367,14.37868 -9.15367,18.66094 0,1.58818 0.006,1.59225 1.79494,1.31114 0.9872,-0.15516 4.64743,-1.62672 8.13376,-3.27013 z m -274.92475,30.06803 c -7.17176,-1.5556 -9.62773,-4.8157 -8.3114,-11.0329 1.26413,-5.97092 2.93684,-10.82192 12.58131,-36.48701 7.01047,-18.65574 8.65086,-23.36231 11.08578,-31.80661 1.44307,-5.00462 3.27355,-12.11343 4.06772,-15.79739 1.59452,-7.39639 3.40585,-18.39953 3.0806,-18.71354 -0.11434,-0.11041 -2.31407,0.48923 -4.88825,1.33251 -5.12792,1.67998 -6.46148,1.62806 -6.21694,-0.24196 0.12831,-0.98113 0.74282,-1.3921 3.98092,-2.66238 2.10606,-0.82619 7.16428,-3.06582 11.24047,-4.97689 7.50153,-3.51706 9.38094,-4.04364 9.89478,-2.77238 0.15616,0.38629 0.0234,2.99348 -0.29546,5.79374 -1.7591,15.45866 -7.48579,36.51823 -18.18137,66.86091 -2.90131,8.23084 -5.18245,15.05318 -5.06922,15.16071 0.11327,0.1075 3.34998,-2.73275 7.19274,-6.31169 7.6946,-7.16631 9.56942,-8.5715 14.99682,-11.24002 4.81442,-2.36711 8.13997,-3.25881 12.15378,-3.25881 3.88289,0 5.78968,0.67158 8.49524,2.99209 3.74845,3.21501 4.86532,6.88305 3.89798,12.80195 -1.39069,8.50912 -5.92366,16.09414 -14.26582,23.87082 -8.80801,8.21095 -17.09981,13.09395 -26.94872,15.86985 -4.15361,1.1707 -14.3707,1.5127 -18.49096,0.619 z m 22.13989,-4.8596 c 5.70073,-1.6639 14.14807,-8.2293 18.73944,-14.56474 5.61473,-7.74742 7.86021,-17.6852 5.03862,-22.29929 -0.49757,-0.81368 -1.972,-2.05022 -3.27653,-2.74787 -5.05739,-2.70484 -11.86974,-0.83506 -19.44651,5.33729 -9.22513,7.51523 -17.44835,18.84685 -18.69636,25.76371 -0.46961,2.6028 -0.4283,3.2835 0.31082,5.1208 0.46881,1.1654 1.39088,2.4539 2.04904,2.8633 3.30001,2.0527 9.33986,2.2609 15.28148,0.5268 z m 60.72958,-154.28963 c -13.26448,-1.01079 -21.42225,-1.82571 -27.04376,-2.70145 -39.51973,-6.15661 -74.97537,-19.25346 -107.69639,-39.7817 -24.46,-15.34549 -48.69328,-37.09595 -66.54607,-59.72819 -27.54094,-34.91398 -45.53683,-76.86634 -51.44261,-119.92402 -3.263634,-23.79465 -2.790306,-52.58985 1.2325,-74.97779 7.42242,-41.30747 23.89206,-77.90544 50.40724,-112.01225 1.73475,-2.23145 7.78853,-9.41633 8.42322,-9.99704 0.13659,-0.12496 1.31552,-1.45412 2.6199,-2.95367 4.4436,-5.10864 13.40999,-13.99469 20.20407,-20.02305 33.77007,-29.96408 74.28566,-50.94129 118.86561,-61.54338 13.99272,-3.32777 25.52276,-5.16819 43.07856,-6.87616 7.83999,-0.76274 36.51541,-0.78174 44.75385,-0.0297 9.31724,0.85056 9.37803,0.86416 9.12888,2.0418 -0.1165,0.55067 -0.57994,2.91396 -1.02985,5.25176 l -0.81804,4.25054 -3.40117,-0.27916 c -28.70492,-2.35604 -56.53102,-0.18575 -83.87748,6.542 -59.61391,14.66616 -111.22761,50.14546 -144.6079,99.40361 -16.28086,24.02511 -27.85559,51.00303 -33.8097,78.80222 -3.28404,15.33283 -4.55798,26.2944 -4.92937,42.41502 -1.09623,47.57989 13.28623,94.20283 41.29491,133.86373 29.74546,42.12021 72.29068,73.38567 122.96902,90.36693 13.73161,4.60114 33.5029,9.02776 48.9513,10.9598 13.66647,1.70913 36.95952,2.32775 49.65075,1.31863 22.21163,-1.76609 40.62139,-5.31479 60.5493,-11.67148 10.71254,-3.41717 25.198,-9.20724 33.08992,-13.22659 9.53426,-4.85573 11.64166,-5.97009 15.49311,-8.19248 34.95934,-20.1722 64.30254,-48.60309 84.95965,-82.31808 4.36215,-7.11967 12.0435,-22.02932 15.27627,-29.65165 18.33507,-43.23111 22.5475,-91.51688 11.9619,-137.11709 -7.41897,-31.95918 -22.92051,-63.91327 -43.53757,-89.74613 -10.45656,-13.10187 -25.55852,-28.28186 -37.54795,-37.74194 -22.99097,-18.14065 -46.98439,-31.36145 -73.95153,-40.74859 -1.4479,-0.50401 -2.81806,-1.07744 -3.04475,-1.27429 -0.44538,-0.38672 1.19211,-5.53528 2.61898,-8.23491 l 0.87835,-1.66168 4.20125,1.48655 c 28.23326,9.98993 53.08097,23.31056 75.47842,40.46329 2.60964,1.99855 5.40974,4.13258 6.22245,4.74229 0.81275,0.6097 4.06241,3.35917 7.2215,6.10993 46.1181,40.15692 75.91817,93.44072 84.91148,151.82528 2.0214,13.12261 2.60386,21.2266 2.62936,36.58006 0.0257,15.56579 -0.40724,22.07643 -2.35783,35.44403 -10.05959,68.93917 -48.88184,130.63358 -108.00239,171.63211 -46.41356,32.18661 -102.57368,49.45291 -159.78584,49.12577 -6.4498,-0.0368 -12.58852,-0.13268 -13.64155,-0.21295 z m 2.39326,-98.80827 c -18.98505,-0.96524 -42.14864,-4.1776 -55.7628,-7.73327 -8.42892,-2.2015 -16.08282,-5.11369 -18.12099,-6.89487 -2.59237,-2.26551 -3.20857,-6.43326 -1.40225,-9.48443 1.36825,-2.31117 3.2289,-3.36354 7.07832,-4.00346 22.33541,-3.71294 47.48674,-14.66955 66.53244,-28.98331 6.70938,-5.04239 19.69058,-17.63095 24.48083,-23.74034 4.62009,-5.89233 10.11833,-13.95663 9.8923,-14.50908 -0.0823,-0.20107 -1.33426,0.0153 -2.78219,0.48062 -1.4479,0.46539 -5.22258,1.34596 -8.38818,1.95673 -29.11639,5.61786 -62.37557,-4.94596 -83.69826,-26.58438 -19.04031,-19.32218 -28.40842,-44.8963 -27.44047,-74.91009 1.06567,-33.04449 13.07857,-57.6087 41.24866,-84.3461 7.35015,-6.97636 14.64701,-13.16216 31.60981,-26.79676 17.64456,-14.18257 24.35329,-19.91766 34.00518,-29.07009 19.59416,-18.58016 32.12894,-35.26286 41.53349,-55.27748 7.9806,-16.98415 12.97231,-35.12472 15.4055,-55.98578 0.81053,-6.94886 1.32797,-8.29372 3.91058,-10.16381 1.49277,-1.08094 2.2101,-1.27312 4.75189,-1.27312 3.34837,0 4.88824,0.77374 6.77348,3.40346 1.38908,1.93763 1.42481,5.61399 0.14298,14.72064 -5.94936,42.26742 -22.09141,75.50484 -51.62368,106.29621 -11.51012,12.00086 -22.92222,22.01 -47.24817,41.43962 -31.95142,25.52026 -45.38848,39.73559 -54.5507,57.71017 -6.1922,12.14802 -9.06962,23.73221 -9.65059,38.85212 -1.0749,27.97608 8.02341,51.62937 26.06065,67.75091 27.06455,24.19011 68.18191,27.13785 92.34982,6.6207 4.70213,-3.99184 8.29674,-4.40001 12.08673,-1.37243 4.65211,3.71624 3.99686,7.43598 -4.08614,23.19654 -8.91776,17.38823 -17.18513,28.59335 -30.73133,41.65162 -7.22421,6.96401 -13.01554,11.64535 -21.41961,17.31418 -10.76091,7.25868 -23.04994,13.64065 -34.63685,17.98772 -2.46505,0.92482 -4.29142,1.79322 -4.05865,1.92979 0.55754,0.32714 11.71121,1.92329 19.54947,2.79768 26.33413,2.93768 53.14582,2.4226 59.3527,-1.14017 2.95127,-1.69404 9.42266,-9.43865 14.96185,-17.9056 17.11669,-26.1637 31.8048,-64.52691 37.93309,-99.07592 2.59586,-14.63428 3.06957,-20.41309 3.11028,-37.9433 0.0393,-16.93903 0.0479,-17.01016 2.30085,-19.01038 3.66187,-3.25123 10.34582,-2.27478 12.58648,1.83875 2.4222,4.44679 2.00551,32.14807 -0.76412,50.79803 -3.84207,25.87172 -12.73742,55.11673 -24.53344,80.65789 -11.98748,25.95568 -26.0278,46.59586 -35.89895,52.77381 -2.56702,1.60658 -9.37091,3.86634 -14.72188,4.88953 -7.70759,1.47386 -21.18057,1.89791 -36.13813,1.13745 z m 7.41908,-133.83449 c -20.73093,-2.50653 -36.41727,-13.81335 -43.84049,-31.60052 -4.0562,-9.71929 -5.45819,-24.12307 -3.5311,-36.27795 4.15453,-26.20413 22.41976,-50.19174 63.64571,-83.58552 2.23771,-1.81257 4.60703,-3.73979 5.26516,-4.28271 0.65816,-0.54291 3.88905,-3.12961 7.17977,-5.74822 11.45838,-9.11804 20.5529,-16.51826 25.58832,-20.82121 5.4735,-4.67731 8.36287,-5.52013 12.24423,-3.57157 3.68158,1.84827 5.3224,6.51803 3.54193,10.08014 -0.84997,1.70045 -7.19075,7.15876 -22.7071,19.54696 -31.11767,24.84417 -42.01781,34.24798 -52.4337,45.23573 -20.42655,21.54804 -28.64227,40.08752 -26.64043,60.11641 1.64667,16.47515 8.90428,27.20473 22.11626,32.69639 4.9466,2.0561 9.30604,2.81903 16.03322,2.80594 14.73505,-0.0287 26.19999,-5.33867 34.55024,-16.00195 2.69308,-3.43908 4.025,-4.37252 6.99355,-4.90122 2.76606,-0.49264 6.6601,1.48112 7.96295,4.03615 2.29664,4.50396 0.50702,8.46766 -7.13655,15.80636 -8.58368,8.24129 -17.29141,12.78801 -29.49069,15.39851 -4.18238,0.89498 -15.57173,1.52405 -19.34128,1.06828 z m 88.06863,-74.18537 c -3.2958,-1.02048 -5.82013,-2.92271 -7.71156,-5.81116 -0.95351,-1.45609 -1.14038,-2.33718 -1.14038,-5.37675 0,-3.13135 0.17917,-3.92464 1.29259,-5.72263 2.98808,-4.82543 8.91967,-6.97318 14.29017,-5.17432 4.40435,1.47525 7.29142,4.66504 8.13266,8.98542 0.92973,4.77466 -1.82102,9.99473 -6.36564,12.07979 -2.29143,1.05132 -6.69069,1.57919 -8.49784,1.01965 z"
       style="display:inline;fill:#ffffff" />
  </g>
</svg>
